<svg width="1600" height="560" viewBox="0 0 1600 560" fill="none" xmlns="http://www.w3.org/2000/svg">
  <defs>
    <linearGradient id="pageBg" x1="0" y1="0" x2="1600" y2="560" gradientUnits="userSpaceOnUse">
      <stop stop-color="#080A2A"/>
      <stop offset="0.55" stop-color="#0B0E33"/>
      <stop offset="1" stop-color="#15106A"/>
    </linearGradient>
    <linearGradient id="iconBg" x1="958" y1="98" x2="1344" y2="440" gradientUnits="userSpaceOnUse">
      <stop stop-color="#FFF64D"/>
      <stop offset="0.5" stop-color="#C8FF19"/>
      <stop offset="1" stop-color="#25D7FF"/>
    </linearGradient>
    <filter id="iconShadow" x="834" y="34" width="562" height="512" filterUnits="userSpaceOnUse" color-interpolation-filters="sRGB">
      <feDropShadow dx="0" dy="28" stdDeviation="32" flood-color="#01030D" flood-opacity="0.42"/>
    </filter>
  </defs>

  <rect width="1600" height="560" rx="44" fill="url(#pageBg)"/>
  <circle cx="1350" cy="64" r="270" fill="#5B2CFF" fill-opacity="0.28"/>
  <circle cx="44" cy="548" r="320" fill="#FF4D88" fill-opacity="0.16"/>

  <g transform="translate(86 68)">
    <path d="M0 18L18 0L36 18L18 36L0 18Z" fill="#D7FF19"/>
    <path d="M48 18L66 0L84 18L66 36L48 18Z" fill="#25D7FF"/>
    <text x="112" y="28" fill="#EAF0FF" font-family="Inter, Arial, sans-serif" font-size="26" font-weight="800" letter-spacing="2.8">AI CODING AGENT SKILL</text>
  </g>

  <text x="86" y="194" fill="#FFFFFF" font-family="Inter, Arial, sans-serif" font-size="92" font-weight="950" letter-spacing="-3.5">BLINDSPOT</text>
  <text x="88" y="282" fill="#FFFFFF" font-family="Inter, Arial, sans-serif" font-size="88" font-weight="950" letter-spacing="-3.5">SKILL</text>
  <text x="92" y="348" fill="#FFFFFF" font-family="Inter, Arial, sans-serif" font-size="43" font-weight="900" letter-spacing="-0.6">247 real AI coding mistakes.</text>
  <text x="92" y="397" fill="#9FB0D4" font-family="Inter, Arial, sans-serif" font-size="25" font-weight="700">Turned into one pre-build blindspot pass.</text>

  <g transform="translate(92 438)">
    <rect width="156" height="46" rx="23" fill="#D7FF19"/>
    <text x="28" y="31" fill="#080A2A" font-family="Inter, Arial, sans-serif" font-size="19" font-weight="900">state lies</text>
  </g>
  <g transform="translate(268 438)">
    <rect width="176" height="46" rx="23" fill="#25D7FF"/>
    <text x="28" y="31" fill="#080A2A" font-family="Inter, Arial, sans-serif" font-size="19" font-weight="900">entry drift</text>
  </g>
  <g transform="translate(464 438)">
    <rect width="226" height="46" rx="23" fill="#FF5D8F"/>
    <text x="28" y="31" fill="#080A2A" font-family="Inter, Arial, sans-serif" font-size="19" font-weight="900">release mismatch</text>
  </g>

  <g filter="url(#iconShadow)">
    <rect x="918" y="86" width="404" height="404" rx="96" fill="url(#iconBg)"/>
    <path d="M1266 158C1306 195 1326 246 1326 306C1326 418 1236 492 1126 492C1028 492 949 426 928 337" stroke="#0B1020" stroke-opacity="0.12" stroke-width="62" stroke-linecap="round"/>

    <path d="M1012 337C995 247 1040 173 1127 155C1215 137 1295 190 1311 276C1326 355 1277 416 1198 431C1108 448 1028 402 1012 337Z" fill="white" stroke="#0A0D1F" stroke-width="18" stroke-linejoin="round"/>
    <path d="M1015 334C982 328 962 311 954 286C950 272 953 261 962 256C974 249 990 261 1004 278C1015 292 1024 308 1030 324L1015 334Z" fill="white" stroke="#0A0D1F" stroke-width="18" stroke-linejoin="round"/>

    <circle cx="1182" cy="261" r="52" fill="#0A0D1F"/>
    <circle cx="1200" cy="241" r="10" fill="white" fill-opacity="0.96"/>
    <ellipse cx="1104" cy="263" rx="15" ry="22" fill="#0A0D1F"/>
    <path d="M1103 330C1128 354 1167 357 1197 335" stroke="#0A0D1F" stroke-width="17" stroke-linecap="round"/>
    <circle cx="1072" cy="307" r="15" fill="#FF5D8F"/>

    <path d="M1262 141L1275 111L1288 141L1318 154L1288 167L1275 197L1262 167L1232 154L1262 141Z" fill="#0A0D1F"/>
    <path d="M1288 358L1298 336L1308 358L1330 368L1308 378L1298 400L1288 378L1266 368L1288 358Z" fill="white" fill-opacity="0.86"/>
  </g>

  <text x="1378" y="478" fill="#69759D" font-family="Inter, Arial, sans-serif" font-size="18" font-weight="800" letter-spacing="2">NOT A CHECKLIST</text>
</svg>
