<svg width="1600" height="560" viewBox="0 0 1600 560" fill="none" xmlns="http://www.w3.org/2000/svg">
  <rect width="1600" height="560" rx="40" fill="#0B1120"/>
  <g opacity="0.9">
    <circle cx="1250" cy="120" r="260" fill="#38BDF8" fill-opacity="0.13"/>
    <circle cx="270" cy="470" r="300" fill="#FB7185" fill-opacity="0.10"/>
  </g>
  <path d="M104 94H1496" stroke="#1E293B" stroke-width="2"/>
  <path d="M104 466H1496" stroke="#1E293B" stroke-width="2"/>
  <rect x="108" y="112" width="372" height="336" rx="34" fill="#111827" stroke="#334155" stroke-width="2"/>
  <rect x="138" y="146" width="156" height="18" rx="9" fill="#475569"/>
  <rect x="138" y="192" width="282" height="18" rx="9" fill="#1E293B"/>
  <rect x="138" y="230" width="232" height="18" rx="9" fill="#1E293B"/>
  <rect x="138" y="302" width="82" height="82" rx="20" fill="#172554" stroke="#38BDF8" stroke-width="3"/>
  <path d="M160 343C166 329 172 322 180 322C188 322 194 329 200 343C194 357 188 364 180 364C172 364 166 357 160 343Z" stroke="#F8FAFC" stroke-width="7" stroke-linecap="round" stroke-linejoin="round"/>
  <path d="M202 321L158 365" stroke="#FB7185" stroke-width="7" stroke-linecap="round"/>
  <rect x="246" y="302" width="174" height="18" rx="9" fill="#334155"/>
  <rect x="246" y="338" width="124" height="18" rx="9" fill="#1E293B"/>
  <text x="552" y="228" fill="#F8FAFC" font-family="Inter, Arial, sans-serif" font-size="82" font-weight="800" letter-spacing="-2">Blindspot Skill</text>
  <text x="556" y="302" fill="#CBD5E1" font-family="Inter, Arial, sans-serif" font-size="34" font-weight="500">Make AI agents think through what they are about to miss.</text>
  <g transform="translate(556 350)">
    <rect width="232" height="48" rx="24" fill="#38BDF8" fill-opacity="0.16" stroke="#38BDF8"/>
    <text x="28" y="32" fill="#E0F2FE" font-family="Inter, Arial, sans-serif" font-size="20" font-weight="700">real-user pass</text>
  </g>
  <g transform="translate(810 350)">
    <rect width="244" height="48" rx="24" fill="#FB7185" fill-opacity="0.14" stroke="#FB7185"/>
    <text x="28" y="32" fill="#FFE4E6" font-family="Inter, Arial, sans-serif" font-size="20" font-weight="700">state truth audit</text>
  </g>
  <g transform="translate(1078 350)">
    <rect width="242" height="48" rx="24" fill="#22C55E" fill-opacity="0.13" stroke="#22C55E"/>
    <text x="28" y="32" fill="#DCFCE7" font-family="Inter, Arial, sans-serif" font-size="20" font-weight="700">release evidence</text>
  </g>
</svg>
